# xmcd
#
# Track frame offsets:
#	150
#	11572
#	24120
#	36760
#	46830
#	62422
#	74707
#	92935
#	108067
#	122332
#	136832
#	149017
#	165957
#	180895
#
# Disc length: 2627 seconds
# Revision: 2
# Processed by: cddbd v1.5.2PL0 Copyright (c) Steve Scherf et al.
# Submitted via: dBpowerAMP V12.0
#
DISCID=a90a410e
DTITLE=Jack Ingram - Livin' or Dyin'
DYEAR=1997
DGENRE=Country
TTITLE0=Nothin' Wrong With That
TTITLE1=Big Time
TTITLE2=Ghost of a Man
TTITLE3=Flutter
TTITLE4=Rita Ballou
TTITLE5=She Does Her Best
TTITLE6=Dim Lights, Thick Smoke (And Loud, Loud Music)
TTITLE7=Picture on My Wall
TTITLE8=That's Not Me
TTITLE9=Don't You Remember
TTITLE10=Imitation of Love
TTITLE11=Dallas
TTITLE12=I Can't Leave You
TTITLE13=Airways Motel
EXTD=
EXTT0=
EXTT1=
EXTT2=
EXTT3=
EXTT4=
EXTT5=
EXTT6=
EXTT7=
EXTT8=
EXTT9=
EXTT10=
EXTT11=
EXTT12=
EXTT13=
PLAYORDER=
